<svg width="425" height="425" viewBox="0 0 425 425" fill="none" xmlns="http://www.w3.org/2000/svg">
<path d="M425 212.5C425 329.861 329.861 425 212.5 425C95.1395 425 0 329.861 0 212.5C0 95.1395 95.1395 0 212.5 0C329.861 0 425 95.1395 425 212.5Z" fill="#FF7E00"/>
<path d="M210.236 340.704C197.513 340.165 186.084 339.033 175.948 337.308C165.813 335.69 156.001 333.049 146.513 329.383C137.132 325.609 129.207 320.919 122.738 315.312C116.376 309.597 111.039 302.319 106.726 293.478C102.521 284.636 99.9336 274.393 98.9632 262.749C98.9632 260.7 100.041 259.514 102.198 259.19C102.845 259.406 103.923 259.514 105.432 259.514C114.382 259.514 127.967 259.298 146.189 258.867C164.411 258.436 177.997 258.22 186.946 258.22C189.21 258.22 190.989 258.975 192.283 260.484C193.577 261.886 194.602 263.665 195.356 265.821C196.219 267.87 197.189 269.973 198.267 272.129C199.454 274.178 201.394 275.957 204.09 277.466C206.893 278.868 210.451 279.569 214.764 279.569C220.048 279.569 224.684 278.113 228.673 275.202C232.771 272.183 234.819 268.14 234.819 263.072C234.819 259.729 233.094 256.657 229.644 253.853C226.193 251.05 221.611 248.786 215.896 247.06C210.29 245.227 204.899 243.718 199.723 242.532C194.655 241.238 189.426 240.16 184.035 239.297C178.644 238.327 175.517 237.734 174.654 237.518C148.454 230.402 129.585 221.56 118.048 210.994C106.619 200.427 100.904 185.979 100.904 167.649C100.904 154.711 103.276 143.12 108.02 132.877C112.764 122.526 118.964 114.116 126.62 107.646C134.275 101.069 143.332 95.624 153.791 91.3111C164.25 86.8904 174.816 83.8174 185.491 82.0923C196.165 80.2593 207.217 79.3428 218.646 79.3428C248.944 79.3428 273.096 84.9496 291.102 96.1631C297.68 102.74 302.478 107.754 305.497 111.204C308.624 114.547 311.589 118.482 314.392 123.011C317.303 127.539 319.298 132.014 320.376 136.435C321.562 140.748 322.371 146.085 322.802 152.446L316.98 158.269C294.876 159.131 270.077 159.563 242.582 159.563C239.132 159.563 236.329 159.185 234.172 158.43C232.124 157.676 230.722 156.705 229.967 155.519C229.32 154.333 228.619 153.093 227.865 151.799C227.218 150.506 226.571 149.266 225.924 148.08C225.385 146.893 224.145 145.923 222.204 145.168C220.371 144.414 217.891 144.036 214.764 144.036C213.902 144.036 212.5 144.198 210.559 144.521C208.726 144.845 206.516 145.384 203.928 146.139C201.448 146.786 199.292 147.864 197.459 149.373C195.626 150.775 194.709 152.446 194.709 154.387C194.709 156.759 195.895 158.916 198.267 160.856C200.747 162.797 203.335 164.199 206.031 165.062C208.726 165.924 212.069 166.895 216.058 167.973C220.048 168.943 222.527 169.59 223.498 169.914C247.003 175.844 261.02 179.51 265.549 180.911C289.162 188.351 305.874 198.109 315.686 210.185C324.743 221.399 329.272 235.469 329.272 252.398C329.272 262.641 327.924 271.967 325.228 280.377C322.64 288.788 319.19 295.904 314.877 301.726C310.564 307.549 305.173 312.724 298.704 317.253C292.235 321.781 285.657 325.393 278.972 328.089C272.395 330.784 264.902 333.049 256.491 334.882C248.081 336.715 240.318 338.008 233.202 338.763C226.193 339.626 218.538 340.273 210.236 340.704Z" fill="white"/>
</svg>
